<svg width="360" height="222" viewBox="0 0 360 222" fill="none" xmlns="http://www.w3.org/2000/svg">
<g opacity="0.1">
<path d="M76.8232 147.116C76.6793 146.356 76.4533 145.616 76.145 144.917C75.9601 144.485 76.0217 143.992 76.33 143.622L77.5835 142.08L75.6929 139.778L73.9462 140.703C73.5352 140.929 73.0215 140.888 72.6311 140.621C71.994 140.189 71.3159 139.819 70.5967 139.531C70.1651 139.367 69.8569 138.956 69.8158 138.483L69.6309 136.509L66.6717 136.222L66.0963 138.133C65.9525 138.586 65.5826 138.914 65.11 138.997C64.3496 139.141 63.6099 139.367 62.9112 139.675C62.4796 139.86 61.9864 139.798 61.6166 139.49L60.0753 138.236L57.7738 140.127L58.6985 141.874C58.9246 142.286 58.8835 142.799 58.6163 143.19C58.1848 143.827 57.8149 144.506 57.5272 145.225C57.3628 145.657 56.9518 145.965 56.4792 146.006L54.5064 146.191L54.2188 149.151L56.1299 149.727C56.5819 149.871 56.9107 150.241 56.9929 150.713C57.1368 151.474 57.3628 152.214 57.6711 152.913C57.856 153.344 57.7944 153.858 57.4861 154.208L56.2326 155.749L58.1231 158.052L59.8699 157.127C60.2808 156.901 60.7946 156.942 61.185 157.209C61.8221 157.641 62.5002 158.011 63.2194 158.298C63.651 158.463 63.9592 158.874 64.0003 159.347L64.1852 161.32L67.1444 161.608L67.7198 159.696C67.8636 159.244 68.2335 158.915 68.7061 158.833C69.4665 158.689 70.2062 158.463 70.9049 158.154C71.3365 157.969 71.8296 158.031 72.1995 158.339L73.7407 159.593L76.0423 157.702L75.1176 155.955C74.8915 155.544 74.9326 155.03 75.1998 154.639C75.6313 154.002 76.0012 153.324 76.2889 152.604C76.4533 152.173 76.8643 151.864 77.3369 151.823L79.3097 151.638L79.5973 148.678L77.6862 148.103C77.2547 147.959 76.9054 147.568 76.8232 147.116ZM66.1785 156.448C62.0275 156.037 58.9862 152.337 59.3972 148.185C59.8082 144.033 63.5071 140.991 67.6581 141.402C71.8091 141.813 74.8504 145.513 74.4394 149.665C74.0284 153.817 70.3295 156.839 66.1785 156.448Z" fill="#B3B3B3"/>
<path d="M61.9046 148.411C62.1718 145.636 64.6377 143.622 67.4119 143.889C70.1861 144.156 72.1999 146.623 71.9328 149.398C71.6656 152.173 69.1997 154.187 66.4255 153.92C63.6513 153.653 61.6375 151.186 61.9046 148.411Z" fill="#B3B3B3"/>
</g>
<path opacity="0.1" d="M168.822 214.148C220.177 214.148 261.809 210.779 261.809 206.624C261.809 202.469 220.177 199.101 168.822 199.101C117.467 199.101 75.8359 202.469 75.8359 206.624C75.8359 210.779 117.467 214.148 168.822 214.148Z" fill="#B3B3B3"/>
<path opacity="0.19" d="M140.629 182.636C140.629 184.383 142.047 185.802 143.794 185.802H257.494C259.24 185.802 260.658 184.383 260.658 182.636V84.7094H140.649V182.636H140.629Z" fill="#B3B3B3"/>
<path d="M176.344 142.203C176.878 144.053 177.618 145.842 178.563 147.548C179.139 148.576 179.098 149.85 178.44 150.837L175.686 154.968L180.968 160.251L185.098 157.497C186.084 156.839 187.358 156.798 188.386 157.373C190.071 158.319 191.859 159.059 193.729 159.593C194.859 159.922 195.722 160.847 195.969 162.019L196.934 166.891H204.394L205.38 161.998C205.606 160.847 206.469 159.902 207.62 159.573C209.47 159.038 211.257 158.298 212.963 157.353C213.991 156.777 215.265 156.818 216.251 157.476L220.381 160.231L225.663 154.948L222.909 150.816C222.251 149.829 222.21 148.555 222.786 147.527C223.731 145.842 224.471 144.053 225.005 142.183C225.334 141.052 226.259 140.189 227.43 139.942L232.3 138.976V131.514L227.409 130.528C226.259 130.302 225.313 129.438 224.984 128.287C224.45 126.437 223.71 124.649 222.765 122.943C222.19 121.915 222.231 120.641 222.888 119.654L225.642 115.522L220.361 110.239L216.23 112.994C215.244 113.652 213.97 113.693 212.942 113.117C211.257 112.172 209.47 111.432 207.6 110.897C206.469 110.568 205.606 109.643 205.36 108.472L204.394 103.6H196.934L195.948 108.492C195.722 109.643 194.859 110.589 193.708 110.918C191.859 111.452 190.071 112.192 188.365 113.138C187.338 113.713 186.064 113.672 185.077 113.014L180.947 110.26L175.666 115.543L178.419 119.674C179.077 120.661 179.118 121.936 178.543 122.963C177.597 124.649 176.858 126.437 176.323 128.308C175.995 129.438 175.07 130.302 173.898 130.548L169.028 131.514V138.976L173.919 139.963C175.09 140.189 176.036 141.052 176.344 142.203ZM200.633 116.283C211.093 116.283 219.58 124.772 219.58 135.235C219.58 145.698 211.093 154.187 200.633 154.187C190.174 154.187 181.687 145.698 181.687 135.235C181.687 124.793 190.174 116.303 200.633 116.283ZM140.629 68.9022V78.3783H260.638V68.9022C260.638 67.155 259.22 65.7367 257.473 65.7367H143.773C142.026 65.7367 140.629 67.155 140.629 68.9022ZM172.213 68.9022H178.522V75.2333H172.213V68.9022ZM159.576 68.9022H165.884V75.2333H159.576V68.9022ZM146.938 68.9022H153.246V75.2333H146.938V68.9022Z" fill="#B3B3B3"/>
<path d="M213.27 135.256C213.27 142.224 207.619 147.897 200.632 147.897C193.646 147.897 187.994 142.244 187.994 135.256C187.994 128.287 193.646 122.614 200.632 122.614C207.599 122.614 213.27 128.267 213.27 135.256ZM203.797 12.0456C203.797 10.2983 202.379 8.88 200.632 8.88H86.9322C85.1855 8.88 83.7676 10.2983 83.7676 12.0456V21.5217H203.776V12.0456H203.797ZM96.4055 18.3561H90.0968V12.0456H96.4055V18.3561ZM109.043 18.3561H102.735V12.0456H109.043V18.3561ZM121.681 18.3561H115.373V12.0456H121.681V18.3561Z" fill="#B3B3B3"/>
<path opacity="0.19" d="M134.299 68.9022C134.299 63.6606 138.532 59.4261 143.772 59.4261H203.776V27.8322H83.7676V125.759C83.7676 127.506 85.1855 128.924 86.9322 128.924H134.299V68.9022ZM159.575 43.6395H165.883V49.95H159.575V43.6395ZM146.937 43.6395H153.245V49.95H146.937V43.6395ZM134.299 43.6395H140.607V49.95H134.299V43.6395ZM121.681 119.448H96.4055V113.138H121.681V119.448ZM121.681 106.807H96.4055V100.496H121.681V106.807ZM121.681 94.1856H96.4055V87.875H121.681V94.1856ZM121.681 81.5439H96.4055V75.2333H121.681V81.5439ZM121.681 68.9022H96.4055V62.5917H121.681V68.9022ZM121.681 49.95V43.6395H127.99V49.95H121.681Z" fill="#B3B3B3"/>
<path d="M159.02 157.682L159.143 154.352L161.506 155.071L161.958 159.223C161.958 159.223 159.698 159.367 159.02 157.682Z" fill="#FCD2B1"/>
<path d="M159.227 157.702C159.781 157.928 160.706 158.134 161.857 157.867L161.713 156.921C161.713 156.921 162.371 157.312 162.535 158.175C162.699 159.018 162.741 158.792 163.809 159.449C164.898 160.107 164.816 161.587 164.816 161.587L156.761 161.382C156.761 161.382 156.535 159.758 157.994 158.031C158.281 157.661 158.795 157.517 159.227 157.702Z" fill="#62B1B1"/>
<path d="M146.218 108.739C146.218 108.739 145.17 112.829 146.649 115.399C148.129 117.968 150.8 112.274 150.8 112.274C150.8 112.274 150.327 106.807 146.218 108.739Z" fill="#FFBE55"/>
<path d="M145.479 89.3344C145.479 89.3344 140.054 96.7139 139.149 101.174C138.225 105.635 139.211 115.378 139.211 115.378H141.43C141.43 115.378 142.602 102.942 143.342 101.174C144.081 99.3656 148.89 91.02 148.89 91.02L145.479 89.3344Z" fill="#FFE3CA"/>
<path d="M144.553 161.217H165.144V163.581H144.553V161.217ZM140.155 177.538H162.287V179.902H140.155V177.538ZM138.162 193.325H160.294V195.689H138.162V193.325Z" fill="#D3D3D3"/>
<path d="M135.942 209.029H133.477L151.642 123.559H153.019L135.942 209.029ZM161.691 209.029H159.225L173.63 121.154L174.843 121.73L161.691 209.029Z" fill="#D3D3D3"/>
<path d="M156.697 209.029L169.952 123.703L151.642 123.559L133.476 209.029H130.641L149.094 121.154H173.63L160.006 209.029H156.286" fill="#F7F7F7"/>
<path d="M148.375 157.682L148.498 154.352L150.861 155.071L151.314 159.223C151.293 159.223 149.053 159.367 148.375 157.682Z" fill="#FCD2B1"/>
<path d="M171.7 82.5511C171.7 82.5511 177.556 82.1194 178.255 79.4061C178.954 76.6928 178.83 69.375 178.83 69.375H180.865C180.865 69.375 182.262 76.1789 182.18 79.4061C182.098 82.6333 178.173 88.1422 171.7 87.7928C165.247 87.4433 171.7 82.5511 171.7 82.5511Z" fill="#FFE3CA"/>
<path d="M152.732 82.2017C152.732 82.2017 149.341 82.5511 147.944 84.0311C147.266 84.7505 143.053 89.9717 143.218 91.1022L148.17 94.1856L152.218 88.5739L152.732 82.2017Z" fill="#62B1B1"/>
<path d="M147.429 107.341C147.429 107.341 145.97 111.658 147.347 116.386C148.724 121.113 148.724 130.651 148.601 133.138C148.477 135.626 146.155 142.82 148.128 155.523H151.169C151.169 155.523 153.019 142.203 154.087 136.53C155.094 131.206 156.368 117.927 156.368 117.927C156.368 117.927 160.191 130.528 159.554 133.776C158.855 137.352 158.773 155.503 158.773 155.503H161.835C161.835 155.503 165.266 139.881 165.472 135.687C165.698 131.494 165.225 107.978 165.225 107.978C165.225 107.978 155.033 101.051 147.429 107.341Z" fill="#212121"/>
<path d="M157.869 74L154.766 83.4967L160.376 84.6067L161.609 74.7606L157.869 74Z" fill="#FCD2B1"/>
<path d="M161.055 81.6672C161.055 81.6672 164.857 82.4483 165.247 87.4228C165.638 92.3972 166.172 113.611 166.172 115.44C166.049 116.283 151.273 119.099 146.876 114.823C145.766 113.734 149.403 95.275 148.89 90.4239C148.355 85.5933 151.232 79.4472 161.055 81.6672Z" fill="#62B1B1"/>
<path d="M165.473 91.6161C165.473 91.6161 166.994 88.1422 171.699 87.7928C171.699 87.7928 172.83 84.5656 171.699 82.5511C171.699 82.5511 163.171 80.8039 159.925 81.4617C156.678 82.1194 165.473 91.6161 165.473 91.6161Z" fill="#62B1B1"/>
<path d="M180.844 71.2044C180.844 71.2044 181.481 67.7922 180.35 65.86C179.672 64.7089 178.933 64.1744 178.193 64.38C177.7 64.5239 177.494 65.3872 177.617 65.8806C177.782 66.5178 178.316 68.265 178.604 68.7583C178.604 68.7583 178.09 68.7583 177.556 67.6072C177.042 66.4767 176.652 68.1417 177.063 68.9228C177.679 70.0533 179.713 73.1572 180.844 71.2044Z" fill="#FFE3CA"/>
<path d="M148.561 157.702C149.115 157.928 150.04 158.134 151.191 157.867L151.047 156.921C151.047 156.921 151.705 157.312 151.869 158.175C152.033 159.018 152.075 158.792 153.143 159.449C154.232 160.107 154.15 161.587 154.15 161.587L146.095 161.382C146.095 161.382 145.869 159.758 147.328 158.031C147.636 157.661 148.129 157.517 148.561 157.702Z" fill="#62B1B1"/>
<path d="M165.822 72.5817C165.678 71.3894 168.267 70.5878 163.315 67.0933C160.787 65.3256 156.39 66.1067 155.033 68.7789C153.677 71.4511 154.396 71.7183 153.348 71.9033C152.3 72.1089 153.41 80.3722 159.739 80.2694C166.089 80.1667 165.822 72.5817 165.822 72.5817Z" fill="#212121"/>
<path d="M146.568 105.861H165.843C166.624 105.861 167.261 106.437 167.343 107.197C167.672 110.096 168.022 116.673 164.631 117.146C160.274 117.763 158.877 113.056 158.877 108.677L146.219 108.739C146.219 108.739 145.787 106.642 146.568 105.861Z" fill="#FFBE55"/>
<path d="M141.287 114.227C141.287 114.227 140.917 118.606 142.335 119.798C143.753 121.011 139.828 121.545 138.862 119.325C137.896 117.105 139.211 114.227 139.211 114.227H141.287Z" fill="#FFE3CA"/>
<path d="M140.917 114.803C140.917 114.803 142.232 115.029 142.725 116.447C143.013 117.249 143.177 118.112 143.26 118.708C143.321 119.099 142.869 119.366 142.54 119.119C142.212 118.873 141.903 118.503 141.944 117.866C142.047 116.529 140.444 116.92 140.444 116.92C140.444 116.92 139.91 115.337 140.917 114.803Z" fill="#FFE3CA"/>
<path d="M162.431 108.883H161.424V105.902C161.424 105.738 161.568 105.594 161.732 105.594H162.143C162.307 105.594 162.451 105.738 162.451 105.902V108.883H162.431ZM163.931 108.883H162.924V106.909C162.924 106.745 163.068 106.601 163.232 106.601H163.643C163.808 106.601 163.951 106.745 163.951 106.909V108.883H163.931ZM165.842 108.883H164.445V104.587C164.445 104.361 164.63 104.176 164.856 104.176H165.431C165.657 104.176 165.842 104.361 165.842 104.587V108.883Z" fill="#F7F7F7"/>
<path opacity="0.32" d="M159.205 108.883H166.973V109.541H159.205V108.883Z" fill="#161616"/>
<path d="M95.5427 168.453C95.1728 167.507 94.7207 166.582 94.1453 165.739C93.796 165.226 93.7754 164.547 94.0631 164.013L95.3372 161.711L92.337 159.162L90.282 160.806C89.7888 161.197 89.1312 161.279 88.5559 161.012C87.6311 160.601 86.6448 160.272 85.6584 160.087C85.0419 159.963 84.5487 159.511 84.3843 158.915L83.6651 156.407L79.7401 156.736L79.4319 159.347C79.3702 159.963 78.9387 160.498 78.3633 160.724C77.418 161.094 76.4933 161.546 75.6508 162.122C75.1371 162.471 74.4589 162.492 73.9246 162.204L71.6231 160.929L69.075 163.931L70.7189 165.986C71.1094 166.479 71.1916 167.137 70.9244 167.713C70.5134 168.638 70.1846 169.624 69.9997 170.611C69.8764 171.228 69.4243 171.721 68.8284 171.886L66.3008 172.605L66.6296 176.531L69.2394 176.839C69.8558 176.901 70.3901 177.333 70.6162 177.908C70.9861 178.854 71.4381 179.779 72.0135 180.622C72.3629 181.136 72.3834 181.814 72.0957 182.348L70.8217 184.651L73.8219 187.199L75.8768 185.555C76.37 185.164 77.0276 185.082 77.603 185.349C78.5277 185.761 79.5141 186.089 80.5005 186.274C81.1169 186.398 81.6101 186.85 81.7745 187.446L82.4938 189.974L86.4187 189.646L86.727 187.035C86.7886 186.418 87.2201 185.884 87.7955 185.658C88.7408 185.288 89.6655 184.836 90.5081 184.26C91.0218 183.911 91.6999 183.89 92.2342 184.178L94.5357 185.452L97.0839 182.451L95.4399 180.396C95.0495 179.902 94.9673 179.244 95.2344 178.669C95.6454 177.744 95.9742 176.757 96.1592 175.771C96.2825 175.154 96.7345 174.661 97.3305 174.496L99.8581 173.777L99.5293 169.851L96.9195 169.542C96.303 169.46 95.7687 169.028 95.5427 168.453ZM83.9117 183.15C78.4044 183.602 73.5753 179.512 73.1027 174.003C72.6506 168.494 76.7399 163.663 82.2472 163.191C87.7544 162.738 92.5835 166.829 93.0562 172.338C93.5083 177.847 89.4189 182.677 83.9117 183.15Z" fill="#B3B3B3"/>
<path d="M76.4319 173.736C76.1237 170.056 78.8568 166.829 82.5146 166.521C86.1929 166.212 89.4192 168.946 89.7274 172.605C90.0357 176.284 87.3026 179.512 83.6448 179.82C79.9664 180.128 76.7402 177.415 76.4319 173.736Z" fill="#B3B3B3"/>
<path d="M127.539 141.402C126.553 140.518 125.484 139.737 124.313 139.099C123.594 138.709 123.183 137.948 123.203 137.147L123.306 133.734L118.333 132.583L116.936 135.687C116.607 136.427 115.888 136.921 115.066 136.962C113.75 137.023 112.435 137.249 111.161 137.619C110.38 137.846 109.538 137.619 108.983 137.023L106.661 134.536L102.325 137.229L103.517 140.436C103.804 141.196 103.64 142.059 103.085 142.656C102.202 143.642 101.421 144.711 100.784 145.883C100.393 146.602 99.6329 147.013 98.8315 146.993L95.4203 146.89L94.2695 151.864L97.3725 153.262C98.1123 153.591 98.6055 154.311 98.6466 155.133C98.7082 156.448 98.9343 157.764 99.2836 159.038C99.5096 159.819 99.2836 160.662 98.6877 161.217L96.2012 163.54L98.8932 167.877L102.099 166.664C102.859 166.377 103.702 166.541 104.318 167.096C105.305 167.98 106.373 168.761 107.544 169.398C108.264 169.789 108.695 170.549 108.654 171.351L108.551 174.763L113.524 175.914L114.922 172.811C115.251 172.071 115.97 171.577 116.792 171.536C118.107 171.474 119.422 171.248 120.696 170.899C121.477 170.673 122.32 170.899 122.874 171.495L125.196 173.982L129.532 171.289L128.341 168.083C128.053 167.322 128.217 166.459 128.772 165.863C129.656 164.876 130.437 163.807 131.074 162.636C131.464 161.916 132.224 161.505 133.026 161.526L136.437 161.628L137.588 156.654L134.485 155.256C133.745 154.927 133.252 154.208 133.211 153.386C133.149 152.07 132.923 150.754 132.574 149.48C132.348 148.699 132.574 147.856 133.17 147.301L135.656 144.978L132.964 140.641L129.758 141.833C128.998 142.101 128.156 141.936 127.539 141.402ZM122.813 165.267C116.73 169.069 108.716 167.199 104.914 161.114C101.113 155.03 102.983 147.013 109.065 143.211C115.148 139.408 123.162 141.278 126.964 147.363C130.745 153.468 128.895 161.464 122.813 165.267Z" fill="#B3B3B3"/>
<path d="M108.591 158.812C106.063 154.763 107.296 149.418 111.365 146.89C115.434 144.362 120.756 145.595 123.284 149.665C125.811 153.714 124.578 159.059 120.51 161.587C116.461 164.116 111.119 162.882 108.591 158.812Z" fill="#B3B3B3"/>
<path d="M271.324 45.7156C270.522 46.7433 269.865 47.8533 269.33 49.0456C269.002 49.765 268.303 50.2583 267.501 50.2994L264.152 50.4639L263.412 55.4178L266.556 56.5483C267.296 56.8156 267.83 57.4939 267.933 58.275C268.097 59.57 268.406 60.8239 268.878 62.0367C269.166 62.7767 269.002 63.6194 268.467 64.2156L266.227 66.6822L269.207 70.7111L272.248 69.2928C272.968 68.9639 273.81 69.0461 274.447 69.5394C275.475 70.3411 276.584 70.9989 277.776 71.5333C278.495 71.8622 278.989 72.5611 279.03 73.3628L279.194 76.7133L284.147 77.4533L285.277 74.3083C285.544 73.5683 286.222 73.0339 287.003 72.9311C288.298 72.7667 289.551 72.4583 290.763 71.9856C291.503 71.6978 292.346 71.8622 292.942 72.3967L295.408 74.6578L299.435 71.6772L298.017 68.635C297.689 67.9156 297.771 67.0728 298.264 66.4356C299.065 65.4078 299.723 64.2978 300.257 63.1056C300.586 62.3861 301.285 61.8928 302.086 61.8517L305.436 61.6872L306.176 56.7333L303.031 55.6028C302.292 55.3356 301.757 54.6572 301.655 53.8761C301.49 52.5811 301.182 51.3272 300.709 50.1144C300.422 49.3744 300.586 48.5317 301.12 47.9356L303.381 45.4689L300.401 41.44L297.36 42.8583C296.641 43.1872 295.798 43.105 295.161 42.6117C294.134 41.81 293.024 41.1522 291.832 40.6178C291.113 40.2889 290.62 39.59 290.578 38.7883L290.414 35.4378L285.462 34.6978L284.331 37.8428C284.064 38.5828 283.386 39.1172 282.605 39.22C281.311 39.3844 280.057 39.6928 278.845 40.1656C278.105 40.4533 277.262 40.2889 276.667 39.7544L274.201 37.4933L270.173 40.4739L271.591 43.5161C271.899 44.2356 271.817 45.0783 271.324 45.7156ZM295.017 48.4906C299.189 54.1433 297.997 62.1394 292.346 66.3122C286.695 70.485 278.701 69.2928 274.529 63.64C270.358 57.9872 271.55 49.9911 277.201 45.8183C282.872 41.6456 290.846 42.8378 295.017 48.4906Z" fill="#B3B3B3"/>
<path d="M289.818 62.9C286.037 65.6956 280.735 64.8939 277.94 61.1117C275.146 57.3294 275.947 52.0261 279.728 49.2306C283.509 46.435 288.811 47.2367 291.606 51.0189C294.401 54.7806 293.599 60.1044 289.818 62.9Z" fill="#B3B3B3"/>
<path d="M220.607 29.1067C220.299 30.7717 220.196 32.4572 220.257 34.1428C220.299 35.1706 219.785 36.1572 218.881 36.6711L215.12 38.8294L217.196 44.9961L221.511 44.4411C222.538 44.3178 223.545 44.77 224.121 45.6128C225.087 47.0106 226.196 48.285 227.429 49.4156C228.19 50.1144 228.498 51.1833 228.231 52.17L227.1 56.3428L232.916 59.2411L235.587 55.8083C236.224 54.9861 237.252 54.5956 238.259 54.7806C239.923 55.0889 241.608 55.2122 243.293 55.13C244.321 55.0889 245.307 55.6028 245.821 56.5072L247.979 60.2689L254.144 58.1928L253.589 53.8761C253.465 52.8483 253.917 51.8411 254.76 51.2656C256.157 50.32 257.431 49.1894 258.562 47.9561C259.26 47.1956 260.329 46.8872 261.315 47.1544L265.507 48.285L268.405 42.4472L264.953 39.775C264.131 39.1378 263.74 38.11 263.925 37.1028C264.233 35.4378 264.357 33.7522 264.274 32.0667C264.233 31.0389 264.768 30.0522 265.651 29.5383L269.412 27.38L267.336 21.2133L263.021 21.7683C261.993 21.8917 260.987 21.4394 260.411 20.5967C259.466 19.1989 258.336 17.9244 257.103 16.7939C256.342 16.095 256.034 15.0261 256.301 14.0394L257.431 9.84611L251.637 6.94778L248.965 10.3806C248.328 11.2028 247.301 11.5933 246.294 11.4083C244.629 11.1 242.944 10.9767 241.259 11.0589C240.232 11.1 239.245 10.5861 238.731 9.68166L236.574 5.92L230.409 7.99611L230.964 12.3128C231.087 13.3406 230.635 14.3478 229.792 14.9233C228.395 15.8689 227.121 16.9994 225.991 18.2328C225.292 18.9933 224.224 19.3017 223.237 19.0344L219.045 17.9039L216.148 23.7417L219.579 26.4139C220.422 27.0511 220.812 28.0789 220.607 29.1067ZM249.643 18.2739C257.822 22.3439 261.151 32.2722 257.103 40.4533C253.034 48.6344 243.108 51.9644 234.93 47.915C226.751 43.845 223.422 33.9167 227.47 25.7356C231.539 17.5544 241.465 14.2244 249.643 18.2739Z" fill="#B3B3B3"/>
<path d="M252.15 38.0072C249.438 43.4544 242.821 45.695 237.375 42.9817C231.929 40.2683 229.69 33.6494 232.402 28.2022C235.115 22.755 241.732 20.5144 247.177 23.2278C252.643 25.9206 254.863 32.5394 252.15 38.0072Z" fill="#B3B3B3"/>
</svg>
